<svg width="16" height="13" viewBox="0 0 16 13" fill="none" xmlns="http://www.w3.org/2000/svg">
<path d="M3.06066 4.43934C2.47487 3.85355 1.52513 3.85355 0.93934 4.43934C0.353553 5.02513 0.353553 5.97487 0.93934 6.56066L3.06066 4.43934ZM7.5 11L6.43934 12.0607C6.74357 12.3649 7.16379 12.5238 7.59321 12.4971C8.02262 12.4704 8.41988 12.2605 8.68403 11.9209L7.5 11ZM15.684 2.92091C16.1926 2.26699 16.0748 1.32458 15.4209 0.815972C14.767 0.307367 13.8246 0.425168 13.316 1.07909L15.684 2.92091ZM0.93934 6.56066L6.43934 12.0607L8.56066 9.93934L3.06066 4.43934L0.93934 6.56066ZM8.68403 11.9209L15.684 2.92091L13.316 1.07909L6.31597 10.0791L8.68403 11.9209Z" fill="#3DC262"/>
</svg>
