<svg width="73" height="89" viewBox="0 0 73 89" fill="none" xmlns="http://www.w3.org/2000/svg">
<path d="M19.666 11.3333V61.3333C19.666 63.5435 20.544 65.6631 22.1068 67.2259C23.6696 68.7887 25.7892 69.6667 27.9993 69.6667H61.3327C63.5428 69.6667 65.6624 68.7887 67.2252 67.2259C68.788 65.6631 69.666 63.5435 69.666 61.3333V24.8417C69.6659 23.7315 69.4439 22.6325 69.0132 21.6094C68.5824 20.5862 67.9516 19.6593 67.1577 18.8833L53.3452 5.375C51.7884 3.85274 49.6976 3.00027 47.5202 3H27.9993C25.7892 3 23.6696 3.87797 22.1068 5.44078C20.544 7.00358 19.666 9.1232 19.666 11.3333V11.3333Z" stroke="#9055FF" stroke-width="5" stroke-linecap="round" stroke-linejoin="round"/>
<path d="M53 69.6667V78C53 80.2101 52.122 82.3298 50.5592 83.8926C48.9964 85.4554 46.8768 86.3333 44.6667 86.3333H11.3333C9.1232 86.3333 7.00358 85.4554 5.44078 83.8926C3.87797 82.3298 3 80.2101 3 78V32.1667C3 29.9565 3.87797 27.8369 5.44078 26.2741C7.00358 24.7113 9.1232 23.8333 11.3333 23.8333H19.6667" stroke="#9055FF" stroke-width="5" stroke-linecap="round" stroke-linejoin="round"/>
</svg>
