<svg width="100" height="100" viewBox="0 0 100 100" fill="none" xmlns="http://www.w3.org/2000/svg">
<path d="M65.0988 71.0734C67.2191 65.9719 65.3129 62.8109 63.9176 60.5047C62.5832 58.2922 61.6191 56.6984 62.8035 52.6563C65.6691 42.9094 59.7707 32.6344 59.516 32.2016L54.6426 35.4016C54.6879 35.4875 59.3879 43.8328 57.3316 50.8469C55.3473 57.5953 57.5082 61.175 59.0863 63.7875C60.2832 65.7641 60.7285 66.5016 59.8488 68.6141C56.7848 75.9719 59.0191 79.7125 60.6488 82.4422C62.0707 84.8219 63.0113 86.3969 60.9848 91.3078L66.2379 93.75C69.491 85.8719 67.1816 82.0063 65.4926 79.1859C64.1098 76.8609 63.2707 75.4594 65.0988 71.0734" fill="#9055FF"/>
<path d="M44.306 63.4766C45.82 60.8203 47.8919 57.1828 45.7434 50.4922C43.4981 43.5031 47.9716 35.1187 48.0481 34.9766L48.0513 34.9703L45.9684 33.6891L43.0919 31.9094C42.8481 32.3516 37.2075 42.7891 40.3153 52.4531C41.6028 56.4578 40.6778 58.0844 39.3997 60.3266C38.0638 62.6734 36.2325 65.8875 38.4841 70.9281C40.4184 75.2578 39.6169 76.6844 38.2856 79.0437C36.6716 81.9125 34.4622 85.8422 37.9075 93.6266L43.0981 91.0391C40.9435 86.1844 41.8466 84.5844 43.2106 82.1656C44.77 79.3906 46.9122 75.5906 43.6653 68.3219C42.7356 66.2375 43.1591 65.4859 44.306 63.4766" fill="#9055FF"/>
<path d="M86.6 68.0469C87.4703 62.5969 84.8703 59.9656 82.9719 58.0469C81.1563 56.2094 79.8437 54.8812 80.0484 50.6766C80.1547 48.5 79.8484 46.4031 79.3219 44.4328C83.0871 45.8186 87.0144 46.7161 91.0078 47.1031C94.6562 42.7687 96.875 37.05 96.875 30.7781C96.875 17.2312 86.5234 6.25 73.7594 6.25C68.4531 6.25 63.5719 8.15781 59.6719 11.3469C56.7448 9.65035 53.4207 8.7592 50.0375 8.76406C46.5906 8.76406 43.2891 9.66719 40.3578 11.3703C36.4531 8.16719 31.5625 6.25 26.2406 6.25C13.4797 6.25 3.125 17.2312 3.125 30.7781C3.125 37.05 5.34375 42.7688 8.99375 47.1016C13.8015 46.6365 18.5082 45.43 22.9469 43.525C22.2609 45.7469 21.85 48.1641 21.9734 50.675C22.1812 54.8781 20.8656 56.2078 19.05 58.0453C17.1516 59.9656 14.5516 62.5953 15.4219 68.0453C16.1719 72.7328 15.0281 73.9 13.1328 75.8359C10.8281 78.1891 7.67969 81.4109 8.98906 89.8219L14.675 88.6672C13.8547 83.4203 15.1391 82.1078 17.0828 80.1234C19.3078 77.8469 22.3594 74.7313 21.1047 66.8703C20.7453 64.6156 21.3484 64 22.975 62.3563C25.1266 60.1797 28.0672 57.2031 27.725 50.1828C27.4984 45.6188 29.9344 41.2078 31.8281 38.4969C38.5406 33.6125 43.7594 26.9906 46.6953 19.3312C45.7221 17.3757 44.4925 15.5587 43.0391 13.9281C45.2153 12.8498 47.6103 12.2863 50.0391 12.2813C52.5219 12.2813 54.875 12.8719 56.9891 13.8984C55.5251 15.5371 54.2871 17.3642 53.3078 19.3312C56.7281 28.2531 63.2484 35.7625 71.625 40.7562C73.1141 43.3656 74.4688 46.725 74.3016 50.1813C73.9563 57.2016 76.8984 60.1781 79.0484 62.3547C80.675 63.9984 81.2797 64.6125 80.9219 66.8688C79.6641 74.7297 82.7187 77.8453 84.9406 80.1219C86.8844 82.1062 88.1687 83.4172 87.3484 88.6656L93.0344 89.8203C94.3469 81.4094 91.1937 78.1875 88.8937 75.8344C86.9937 73.9016 85.8516 72.7344 86.6 68.0469V68.0469ZM8.61719 40.8812C7.05309 37.7435 6.24254 34.2841 6.25 30.7781C6.25 18.9766 15.2188 9.375 26.2406 9.375C32.2172 9.375 37.7781 12.2109 41.5344 16.9891C22.7469 20.8438 12.8422 33.6266 8.61719 40.8812ZM58.4656 16.9906C62.2219 12.2109 67.7828 9.375 73.7594 9.375C84.7813 9.375 93.75 18.9766 93.75 30.7781C93.75 34.3375 92.9281 37.8 91.3828 40.8812C87.1578 33.6281 77.2531 20.8437 58.4656 16.9906Z" fill="#9055FF"/>
<path d="M33.3863 50.5562L37.8051 54.9781L33.3832 59.3969L28.9629 54.975L33.3863 50.5562Z" fill="#9055FF"/>
<path d="M77.2898 91.8688L72.8711 87.45L77.2883 83.0312L81.7086 87.4516L77.2898 91.8688Z" fill="#9055FF"/>
<path d="M29.3293 74.7703L24.9121 70.3484L29.334 65.9297L33.7512 70.3516L29.3293 74.7703Z" fill="#9055FF"/>
<path d="M55.4293 44.9625L51.0105 49.3828L46.5918 44.9625L51.0105 40.5438L55.4293 44.9625Z" fill="#9055FF"/>
<path d="M24.9105 91.8688L20.4902 87.45L24.909 83.0312L29.3277 87.4516L24.9105 91.8688Z" fill="#9055FF"/>
<path d="M73.5313 66.7422L77.9484 71.1641L73.5266 75.5828L69.1094 71.1609L73.5313 66.7422Z" fill="#9055FF"/>
<path d="M51.0121 91.1891L46.5918 86.7703L51.0121 82.35L55.4309 86.7703L51.0121 91.1891Z" fill="#9055FF"/>
<path d="M69.1137 51.2031L73.5324 55.6219L69.1121 60.0406L64.6934 55.6203L69.1137 51.2031Z" fill="#9055FF"/>
<path d="M52.116 71.7313L47.6973 67.3109L52.116 62.8922L56.5348 67.3109L52.116 71.7313Z" fill="#9055FF"/>
</svg>
